<svg id="Layer_1" data-name="Layer 1" xmlns="http://www.w3.org/2000/svg" xmlns:xlink="http://www.w3.org/1999/xlink" viewBox="0 0 512 512"><defs><style>.cls-1{fill:url(#linear-gradient);}</style><linearGradient id="linear-gradient" x1="367.8" y1="62.36" x2="144.2" y2="449.64" gradientUnits="userSpaceOnUse"><stop offset="0" stop-color="#028a74"/><stop offset="0.49" stop-color="#db3545"/><stop offset="1" stop-color="#f8f9fa"/></linearGradient></defs><title>Clear Frame</title><path class="cls-1" d="M256,479.5A223.5,223.5,0,0,1,98,98,223.5,223.5,0,0,1,414,414,222,222,0,0,1,256,479.5Z"/><path d="M256,33a223.07,223.07,0,0,1,86.8,428.48,223.06,223.06,0,0,1-173.6-411A221.71,221.71,0,0,1,256,33m0-1C132.29,32,32,132.29,32,256S132.29,480,256,480,480,379.71,480,256,379.71,32,256,32Z"/></svg>