<svg id="Vector" xmlns="http://www.w3.org/2000/svg" viewBox="0 0 512 512"><defs><style>.cls-1{fill:#1a1a1a;}.cls-2{fill:#e6e6e6;}.cls-3{fill:#999;}.cls-4{fill:lime;}.cls-5{fill:#009245;}</style></defs><title>saveobjecticon</title><path class="cls-1" d="M82,17S49,16,34,52s-3,382-3,382-3,46,41,46H447s41-3,47-47c-1-45,0-319,0-319L397,17Z"/><path class="cls-2" d="M135,34H368s19,2,19,18V176s0,18-18,19-234,0-234,0-15-2-15-19V52S122,34,135,34Z"/><rect class="cls-3" x="297" y="52" width="54" height="124"/><path class="cls-2" d="M104.11,249H416.52S442,251.66,442,273V438.11s0,24-24.13,25.3-313.76,0-313.76,0S84,460.74,84,438.11V273S86.68,249,104.11,249Z"/><circle class="cls-4" cx="112.57" cy="399.58" r="102.53"/><rect class="cls-5" x="284" y="297" width="206" height="206"/></svg>