<svg id="Vector" xmlns="http://www.w3.org/2000/svg" viewBox="0 0 512 512"><defs><style>.cls-1{fill:#1a1a1a;}.cls-2{fill:#e6e6e6;}.cls-3{fill:#999;}</style></defs><title>Save Icon</title><path class="cls-1" d="M89,16S56,15,41,51s-3,382-3,382-3,46,41,46H454s41-3,47-47c-1-45,0-319,0-319L404,16Z"/><path class="cls-2" d="M142,33H375s19,2,19,18V175s0,18-18,19-234,0-234,0-15-2-15-19V51S129,33,142,33Z"/><rect class="cls-3" x="304" y="51" width="54" height="124"/><path class="cls-2" d="M111.11,248H423.52S449,250.66,449,272V437.11s0,24-24.13,25.3-313.76,0-313.76,0S91,459.74,91,437.11V272S93.68,248,111.11,248Z"/></svg>