<svg id="Layer_1" data-name="Layer 1" xmlns="http://www.w3.org/2000/svg" viewBox="0 0 512 512"><defs><style>.cls-1{fill:#1a1a1a;}</style></defs><title>objectproperties</title><circle cx="77.5" cy="87.5" r="59"/><path class="cls-1" d="M77.5,30A57.5,57.5,0,1,1,20,87.5,57.56,57.56,0,0,1,77.5,30m0-3A60.5,60.5,0,1,0,138,87.5,60.5,60.5,0,0,0,77.5,27Z"/><circle cx="77.5" cy="256.5" r="59"/><path class="cls-1" d="M77.5,199A57.5,57.5,0,1,1,20,256.5,57.56,57.56,0,0,1,77.5,199m0-3A60.5,60.5,0,1,0,138,256.5,60.5,60.5,0,0,0,77.5,196Z"/><circle cx="77.5" cy="425.5" r="59"/><path class="cls-1" d="M77.5,368A57.5,57.5,0,1,1,20,425.5,57.56,57.56,0,0,1,77.5,368m0-3A60.5,60.5,0,1,0,138,425.5,60.5,60.5,0,0,0,77.5,365Z"/><rect x="155.5" y="28.5" width="329" height="118"/><path class="cls-1" d="M483,30V145H157V30H483m3-3H154V148H486V27Z"/><rect x="155.5" y="197.5" width="329" height="118"/><path class="cls-1" d="M483,199V314H157V199H483m3-3H154V317H486V196Z"/><rect x="155.5" y="366.5" width="329" height="118"/><path class="cls-1" d="M483,368V483H157V368H483m3-3H154V486H486V365Z"/></svg>