<svg id="Vector" xmlns="http://www.w3.org/2000/svg" viewBox="0 0 512 512">
    <defs>
    <style>
        .cls-1{fill:#4d4d4d;}
        .cls-2{fill:#f2f2f2;}
        .cls-3{fill:#007BFF;}
    </style>
    </defs>
    <title>loadicon</title>
    <path class="cls-1" d="M157,76l83,42H392s36,1,35,44h58s31-2,17,39-78,214-78,214-8,20-46,20H41S7,429,7,397V108s6-32,33-32Z"/>
    <path class="cls-2" d="M23,396V117s1-26,25-26H155l80,43H392s21,1,18,29c-40-1-73,0-73,0Z"/>
    <path class="cls-3" d="M39,314,88,172s11-22,27-22H233l-80-45H39Z"/>
</svg>