<?xml version="1.0" encoding="utf-8"?>
<!-- Generator: Adobe Illustrator 22.1.0, SVG Export Plug-In . SVG Version: 6.00 Build 0)  -->
<svg version="1.1" id="Vector" xmlns="http://www.w3.org/2000/svg" xmlns:xlink="http://www.w3.org/1999/xlink" x="0px" y="0px"
	 viewBox="0 0 512 512" style="enable-background:new 0 0 512 512;" xml:space="preserve">
<style type="text/css">
	.st0{fill:#007BFF;stroke:#4D4D4D;stroke-width:5;stroke-miterlimit:10;}
	.st1{fill:#E6E6E6;}
	.st2{fill:#999999;}
	.st3{fill:#00FF00;}
	.st4{fill:#009245;}
</style>
<title>saveobjecticon</title>
<path class="st0" d="M82,17c0,0-33-1-48,35s-3,382-3,382s-3,46,41,46h375c0,0,41-3,47-47c-1-45,0-319,0-319l-97-97H82z"/>
<path class="st1" d="M135,34h233c0,0,19,2,19,18v124c0,0,0,18-18,19s-234,0-234,0s-15-2-15-19V52C120,52,122,34,135,34z"/>
<rect x="297" y="52" class="st2" width="54" height="124"/>
<path class="st1" d="M104.1,249h312.4c0,0,25.5,2.7,25.5,24v165.1c0,0,0,24-24.1,25.3s-313.8,0-313.8,0S84,460.7,84,438.1V273
	C84,273,86.7,249,104.1,249z"/>
<circle class="st3" cx="112.6" cy="399.6" r="102.5"/>
<rect x="284" y="297" class="st4" width="206" height="206"/>
</svg>
